<?xml version="1.0" encoding="utf-8" standalone="no"?>
<!DOCTYPE svg PUBLIC "-//W3C//DTD SVG 1.1//EN"
  "http://www.w3.org/Graphics/SVG/1.1/DTD/svg11.dtd">
<svg xmlns:xlink="http://www.w3.org/1999/xlink" width="360pt" height="288pt" viewBox="0 0 360 288" xmlns="http://www.w3.org/2000/svg" version="1.1">
 <metadata>
  <rdf:RDF xmlns:dc="http://purl.org/dc/elements/1.1/" xmlns:cc="http://creativecommons.org/ns#" xmlns:rdf="http://www.w3.org/1999/02/22-rdf-syntax-ns#">
   <cc:Work>
    <dc:type rdf:resource="http://purl.org/dc/dcmitype/StillImage"/>
    <dc:date>2026-08-10T20:28:50.414358</dc:date>
    <dc:format>image/svg+xml</dc:format>
    <dc:creator>
     <cc:Agent>
      <dc:title>Matplotlib v3.9.4, https://matplotlib.org/</dc:title>
     </cc:Agent>
    </dc:creator>
   </cc:Work>
  </rdf:RDF>
 </metadata>
 <defs>
  <style type="text/css">*{stroke-linejoin: round; stroke-linecap: butt}</style>
 </defs>
 <g id="figure_1">
  <g id="patch_1">
   <path d="M 0 288 
L 360 288 
L 360 0 
L 0 0 
z
" style="fill: #ffffff"/>
  </g>
  <g id="axes_1">
   <g id="patch_2">
    <path d="M 52.985 246.04 
L 349.2 246.04 
L 349.2 26.16 
L 52.985 26.16 
z
" style="fill: #ffffff"/>
   </g>
   <g id="PathCollection_1">
    <defs>
     <path id="C0_0_622445bf26" d="M 0 2.95804 
C 0.784481 2.95804 1.536938 2.646362 2.09165 2.09165 
C 2.646362 1.536938 2.95804 0.784481 2.95804 -0 
C 2.95804 -0.784481 2.646362 -1.536938 2.09165 -2.09165 
C 1.536938 -2.646362 0.784481 -2.95804 0 -2.95804 
C -0.784481 -2.95804 -1.536938 -2.646362 -2.09165 -2.09165 
C -2.646362 -1.536938 -2.95804 -0.784481 -2.95804 0 
C -2.95804 0.784481 -2.646362 1.536938 -2.09165 2.09165 
C -1.536938 2.646362 -0.784481 2.95804 0 2.95804 
z
"/>
    </defs>
    <g clip-path="url(#p05819d25b4)">
     <use xlink:href="#C0_0_622445bf26" x="335.15178" y="135.864543" style="fill: #ff7f0e; stroke: #000000; stroke-width: 0.3"/>
    </g>
    <g clip-path="url(#p05819d25b4)">
     <use xlink:href="#C0_0_622445bf26" x="209.165305" y="202.223483" style="fill: #1f77b4; stroke: #000000; stroke-width: 0.3"/>
    </g>
    <g clip-path="url(#p05819d25b4)">
     <use xlink:href="#C0_0_622445bf26" x="141.791941" y="85.417575" style="fill: #1f77b4; stroke: #000000; stroke-width: 0.3"/>
    </g>
    <g clip-path="url(#p05819d25b4)">
     <use xlink:href="#C0_0_622445bf26" x="124.742854" y="86.723658" style="fill: #1f77b4; stroke: #000000; stroke-width: 0.3"/>
    </g>
    <g clip-path="url(#p05819d25b4)">
     <use xlink:href="#C0_0_622445bf26" x="214.887609" y="165.90666" style="fill: #1f77b4; stroke: #000000; stroke-width: 0.3"/>
    </g>
    <g clip-path="url(#p05819d25b4)">
     <use xlink:href="#C0_0_622445bf26" x="216.851865" y="36.154545" style="fill: #1f77b4; stroke: #000000; stroke-width: 0.3"/>
    </g>
    <g clip-path="url(#p05819d25b4)">
     <use xlink:href="#C0_0_622445bf26" x="288.122867" y="194.011526" style="fill: #ff7f0e; stroke: #000000; stroke-width: 0.3"/>
    </g>
    <g clip-path="url(#p05819d25b4)">
     <use xlink:href="#C0_0_622445bf26" x="289.237494" y="153.667991" style="fill: #ff7f0e; stroke: #000000; stroke-width: 0.3"/>
    </g>
    <g clip-path="url(#p05819d25b4)">
     <use xlink:href="#C0_0_622445bf26" x="296.319433" y="223.779941" style="fill: #ff7f0e; stroke: #000000; stroke-width: 0.3"/>
    </g>
    <g clip-path="url(#p05819d25b4)">
     <use xlink:href="#C0_0_622445bf26" x="317.013682" y="188.688341" style="fill: #ff7f0e; stroke: #000000; stroke-width: 0.3"/>
    </g>
    <g clip-path="url(#p05819d25b4)">
     <use xlink:href="#C0_0_622445bf26" x="178.475312" y="164.128116" style="fill: #1f77b4; stroke: #000000; stroke-width: 0.3"/>
    </g>
    <g clip-path="url(#p05819d25b4)">
     <use xlink:href="#C0_0_622445bf26" x="116.9191" y="146.951134" style="fill: #1f77b4; stroke: #000000; stroke-width: 0.3"/>
    </g>
    <g clip-path="url(#p05819d25b4)">
     <use xlink:href="#C0_0_622445bf26" x="193.577291" y="110.219599" style="fill: #1f77b4; stroke: #000000; stroke-width: 0.3"/>
    </g>
    <g clip-path="url(#p05819d25b4)">
     <use xlink:href="#C0_0_622445bf26" x="209.395482" y="166.69618" style="fill: #1f77b4; stroke: #000000; stroke-width: 0.3"/>
    </g>
    <g clip-path="url(#p05819d25b4)">
     <use xlink:href="#C0_0_622445bf26" x="149.234194" y="130.156288" style="fill: #1f77b4; stroke: #000000; stroke-width: 0.3"/>
    </g>
    <g clip-path="url(#p05819d25b4)">
     <use xlink:href="#C0_0_622445bf26" x="304.497671" y="174.089575" style="fill: #ff7f0e; stroke: #000000; stroke-width: 0.3"/>
    </g>
    <g clip-path="url(#p05819d25b4)">
     <use xlink:href="#C0_0_622445bf26" x="208.764477" y="178.726728" style="fill: #1f77b4; stroke: #000000; stroke-width: 0.3"/>
    </g>
    <g clip-path="url(#p05819d25b4)">
     <use xlink:href="#C0_0_622445bf26" x="232.442794" y="203.263383" style="fill: #1f77b4; stroke: #000000; stroke-width: 0.3"/>
    </g>
    <g clip-path="url(#p05819d25b4)">
     <use xlink:href="#C0_0_622445bf26" x="272.572644" y="196.184544" style="fill: #ff7f0e; stroke: #000000; stroke-width: 0.3"/>
    </g>
    <g clip-path="url(#p05819d25b4)">
     <use xlink:href="#C0_0_622445bf26" x="128.553113" y="168.461076" style="fill: #1f77b4; stroke: #000000; stroke-width: 0.3"/>
    </g>
    <g clip-path="url(#p05819d25b4)">
     <use xlink:href="#C0_0_622445bf26" x="175.921805" y="188.433874" style="fill: #1f77b4; stroke: #000000; stroke-width: 0.3"/>
    </g>
    <g clip-path="url(#p05819d25b4)">
     <use xlink:href="#C0_0_622445bf26" x="155.752687" y="142.614039" style="fill: #1f77b4; stroke: #000000; stroke-width: 0.3"/>
    </g>
    <g clip-path="url(#p05819d25b4)">
     <use xlink:href="#C0_0_622445bf26" x="216.599749" y="108.674928" style="fill: #1f77b4; stroke: #000000; stroke-width: 0.3"/>
    </g>
    <g clip-path="url(#p05819d25b4)">
     <use xlink:href="#C0_0_622445bf26" x="210.498594" y="117.305915" style="fill: #1f77b4; stroke: #000000; stroke-width: 0.3"/>
    </g>
    <g clip-path="url(#p05819d25b4)">
     <use xlink:href="#C0_0_622445bf26" x="197.480299" y="162.451296" style="fill: #1f77b4; stroke: #000000; stroke-width: 0.3"/>
    </g>
    <g clip-path="url(#p05819d25b4)">
     <use xlink:href="#C0_0_622445bf26" x="275.872337" y="165.828735" style="fill: #ff7f0e; stroke: #000000; stroke-width: 0.3"/>
    </g>
    <g clip-path="url(#p05819d25b4)">
     <use xlink:href="#C0_0_622445bf26" x="264.590716" y="92.145853" style="fill: #ff7f0e; stroke: #000000; stroke-width: 0.3"/>
    </g>
    <g clip-path="url(#p05819d25b4)">
     <use xlink:href="#C0_0_622445bf26" x="161.954644" y="101.600556" style="fill: #1f77b4; stroke: #000000; stroke-width: 0.3"/>
    </g>
    <g clip-path="url(#p05819d25b4)">
     <use xlink:href="#C0_0_622445bf26" x="187.193939" y="146.430655" style="fill: #1f77b4; stroke: #000000; stroke-width: 0.3"/>
    </g>
    <g clip-path="url(#p05819d25b4)">
     <use xlink:href="#C0_0_622445bf26" x="314.654985" y="78.6506" style="fill: #ff7f0e; stroke: #000000; stroke-width: 0.3"/>
    </g>
    <g clip-path="url(#p05819d25b4)">
     <use xlink:href="#C0_0_622445bf26" x="141.576769" y="185.184852" style="fill: #1f77b4; stroke: #000000; stroke-width: 0.3"/>
    </g>
    <g clip-path="url(#p05819d25b4)">
     <use xlink:href="#C0_0_622445bf26" x="191.627423" y="147.332528" style="fill: #1f77b4; stroke: #000000; stroke-width: 0.3"/>
    </g>
    <g clip-path="url(#p05819d25b4)">
     <use xlink:href="#C0_0_622445bf26" x="188.433167" y="63.161266" style="fill: #1f77b4; stroke: #000000; stroke-width: 0.3"/>
    </g>
    <g clip-path="url(#p05819d25b4)">
     <use xlink:href="#C0_0_622445bf26" x="199.324125" y="129.743277" style="fill: #1f77b4; stroke: #000000; stroke-width: 0.3"/>
    </g>
    <g clip-path="url(#p05819d25b4)">
     <use xlink:href="#C0_0_622445bf26" x="270.671824" y="191.238062" style="fill: #ff7f0e; stroke: #000000; stroke-width: 0.3"/>
    </g>
    <g clip-path="url(#p05819d25b4)">
     <use xlink:href="#C0_0_622445bf26" x="210.291056" y="140.934605" style="fill: #1f77b4; stroke: #000000; stroke-width: 0.3"/>
    </g>
    <g clip-path="url(#p05819d25b4)">
     <use xlink:href="#C0_0_622445bf26" x="190.449724" y="164.100663" style="fill: #1f77b4; stroke: #000000; stroke-width: 0.3"/>
    </g>
    <g clip-path="url(#p05819d25b4)">
     <use xlink:href="#C0_0_622445bf26" x="291.522048" y="156.302671" style="fill: #ff7f0e; stroke: #000000; stroke-width: 0.3"/>
    </g>
    <g clip-path="url(#p05819d25b4)">
     <use xlink:href="#C0_0_622445bf26" x="254.002683" y="188.902898" style="fill: #ff7f0e; stroke: #000000; stroke-width: 0.3"/>
    </g>
    <g clip-path="url(#p05819d25b4)">
     <use xlink:href="#C0_0_622445bf26" x="319.550347" y="101.401857" style="fill: #ff7f0e; stroke: #000000; stroke-width: 0.3"/>
    </g>
    <g clip-path="url(#p05819d25b4)">
     <use xlink:href="#C0_0_622445bf26" x="233.178595" y="144.151777" style="fill: #1f77b4; stroke: #000000; stroke-width: 0.3"/>
    </g>
    <g clip-path="url(#p05819d25b4)">
     <use xlink:href="#C0_0_622445bf26" x="320.719183" y="153.3463" style="fill: #ff7f0e; stroke: #000000; stroke-width: 0.3"/>
    </g>
    <g clip-path="url(#p05819d25b4)">
     <use xlink:href="#C0_0_622445bf26" x="265.835715" y="75.029335" style="fill: #ff7f0e; stroke: #000000; stroke-width: 0.3"/>
    </g>
    <g clip-path="url(#p05819d25b4)">
     <use xlink:href="#C0_0_622445bf26" x="261.663711" y="172.419715" style="fill: #ff7f0e; stroke: #000000; stroke-width: 0.3"/>
    </g>
    <g clip-path="url(#p05819d25b4)">
     <use xlink:href="#C0_0_622445bf26" x="265.654563" y="168.613412" style="fill: #ff7f0e; stroke: #000000; stroke-width: 0.3"/>
    </g>
    <g clip-path="url(#p05819d25b4)">
     <use xlink:href="#C0_0_622445bf26" x="193.979238" y="61.191041" style="fill: #1f77b4; stroke: #000000; stroke-width: 0.3"/>
    </g>
    <g clip-path="url(#p05819d25b4)">
     <use xlink:href="#C0_0_622445bf26" x="295.002463" y="151.390589" style="fill: #ff7f0e; stroke: #000000; stroke-width: 0.3"/>
    </g>
    <g clip-path="url(#p05819d25b4)">
     <use xlink:href="#C0_0_622445bf26" x="209.999758" y="153.610944" style="fill: #1f77b4; stroke: #000000; stroke-width: 0.3"/>
    </g>
    <g clip-path="url(#p05819d25b4)">
     <use xlink:href="#C0_0_622445bf26" x="243.094446" y="143.852977" style="fill: #ff7f0e; stroke: #000000; stroke-width: 0.3"/>
    </g>
    <g clip-path="url(#p05819d25b4)">
     <use xlink:href="#C0_0_622445bf26" x="249.609489" y="141.435827" style="fill: #ff7f0e; stroke: #000000; stroke-width: 0.3"/>
    </g>
    <g clip-path="url(#p05819d25b4)">
     <use xlink:href="#C0_0_622445bf26" x="190.365314" y="205.377902" style="fill: #1f77b4; stroke: #000000; stroke-width: 0.3"/>
    </g>
    <g clip-path="url(#p05819d25b4)">
     <use xlink:href="#C0_0_622445bf26" x="298.343805" y="202.538901" style="fill: #ff7f0e; stroke: #000000; stroke-width: 0.3"/>
    </g>
    <g clip-path="url(#p05819d25b4)">
     <use xlink:href="#C0_0_622445bf26" x="212.192479" y="151.987092" style="fill: #1f77b4; stroke: #000000; stroke-width: 0.3"/>
    </g>
    <g clip-path="url(#p05819d25b4)">
     <use xlink:href="#C0_0_622445bf26" x="206.859551" y="135.009493" style="fill: #1f77b4; stroke: #000000; stroke-width: 0.3"/>
    </g>
    <g clip-path="url(#p05819d25b4)">
     <use xlink:href="#C0_0_622445bf26" x="223.45982" y="99.04226" style="fill: #1f77b4; stroke: #000000; stroke-width: 0.3"/>
    </g>
    <g clip-path="url(#p05819d25b4)">
     <use xlink:href="#C0_0_622445bf26" x="264.269356" y="194.193716" style="fill: #ff7f0e; stroke: #000000; stroke-width: 0.3"/>
    </g>
    <g clip-path="url(#p05819d25b4)">
     <use xlink:href="#C0_0_622445bf26" x="199.945335" y="215.966432" style="fill: #1f77b4; stroke: #000000; stroke-width: 0.3"/>
    </g>
    <g clip-path="url(#p05819d25b4)">
     <use xlink:href="#C0_0_622445bf26" x="249.108486" y="158.526064" style="fill: #ff7f0e; stroke: #000000; stroke-width: 0.3"/>
    </g>
    <g clip-path="url(#p05819d25b4)">
     <use xlink:href="#C0_0_622445bf26" x="156.949289" y="119.266445" style="fill: #1f77b4; stroke: #000000; stroke-width: 0.3"/>
    </g>
    <g clip-path="url(#p05819d25b4)">
     <use xlink:href="#C0_0_622445bf26" x="260.073308" y="157.816594" style="fill: #ff7f0e; stroke: #000000; stroke-width: 0.3"/>
    </g>
    <g clip-path="url(#p05819d25b4)">
     <use xlink:href="#C0_0_622445bf26" x="248.845368" y="201.056341" style="fill: #ff7f0e; stroke: #000000; stroke-width: 0.3"/>
    </g>
    <g clip-path="url(#p05819d25b4)">
     <use xlink:href="#C0_0_622445bf26" x="249.529089" y="139.018598" style="fill: #1f77b4; stroke: #000000; stroke-width: 0.3"/>
    </g>
    <g clip-path="url(#p05819d25b4)">
     <use xlink:href="#C0_0_622445bf26" x="269.93752" y="204.315843" style="fill: #ff7f0e; stroke: #000000; stroke-width: 0.3"/>
    </g>
    <g clip-path="url(#p05819d25b4)">
     <use xlink:href="#C0_0_622445bf26" x="155.544052" y="146.323183" style="fill: #1f77b4; stroke: #000000; stroke-width: 0.3"/>
    </g>
    <g clip-path="url(#p05819d25b4)">
     <use xlink:href="#C0_0_622445bf26" x="252.749351" y="197.344052" style="fill: #ff7f0e; stroke: #000000; stroke-width: 0.3"/>
    </g>
    <g clip-path="url(#p05819d25b4)">
     <use xlink:href="#C0_0_622445bf26" x="66.449318" y="236.045455" style="fill: #1f77b4; stroke: #000000; stroke-width: 0.3"/>
    </g>
    <g clip-path="url(#p05819d25b4)">
     <use xlink:href="#C0_0_622445bf26" x="153.372642" y="158.15318" style="fill: #1f77b4; stroke: #000000; stroke-width: 0.3"/>
    </g>
    <g clip-path="url(#p05819d25b4)">
     <use xlink:href="#C0_0_622445bf26" x="172.71771" y="217.378448" style="fill: #1f77b4; stroke: #000000; stroke-width: 0.3"/>
    </g>
    <g clip-path="url(#p05819d25b4)">
     <use xlink:href="#C0_0_622445bf26" x="81.004831" y="186.076831" style="fill: #1f77b4; stroke: #000000; stroke-width: 0.3"/>
    </g>
    <g clip-path="url(#p05819d25b4)">
     <use xlink:href="#C0_0_622445bf26" x="208.488522" y="160.651835" style="fill: #1f77b4; stroke: #000000; stroke-width: 0.3"/>
    </g>
    <g clip-path="url(#p05819d25b4)">
     <use xlink:href="#C0_0_622445bf26" x="251.168662" y="101.023854" style="fill: #ff7f0e; stroke: #000000; stroke-width: 0.3"/>
    </g>
    <g clip-path="url(#p05819d25b4)">
     <use xlink:href="#C0_0_622445bf26" x="225.87714" y="130.222041" style="fill: #1f77b4; stroke: #000000; stroke-width: 0.3"/>
    </g>
    <g clip-path="url(#p05819d25b4)">
     <use xlink:href="#C0_0_622445bf26" x="249.768643" y="84.532162" style="fill: #ff7f0e; stroke: #000000; stroke-width: 0.3"/>
    </g>
    <g clip-path="url(#p05819d25b4)">
     <use xlink:href="#C0_0_622445bf26" x="335.735682" y="139.495207" style="fill: #ff7f0e; stroke: #000000; stroke-width: 0.3"/>
    </g>
    <g clip-path="url(#p05819d25b4)">
     <use xlink:href="#C0_0_622445bf26" x="198.336184" y="167.54938" style="fill: #1f77b4; stroke: #000000; stroke-width: 0.3"/>
    </g>
    <g clip-path="url(#p05819d25b4)">
     <use xlink:href="#C0_0_622445bf26" x="177.892145" y="194.434906" style="fill: #1f77b4; stroke: #000000; stroke-width: 0.3"/>
    </g>
    <g clip-path="url(#p05819d25b4)">
     <use xlink:href="#C0_0_622445bf26" x="161.962724" y="187.173602" style="fill: #1f77b4; stroke: #000000; stroke-width: 0.3"/>
    </g>
    <g clip-path="url(#p05819d25b4)">
     <use xlink:href="#C0_0_622445bf26" x="173.848857" y="94.155298" style="fill: #1f77b4; stroke: #000000; stroke-width: 0.3"/>
    </g>
    <g clip-path="url(#p05819d25b4)">
     <use xlink:href="#C0_0_622445bf26" x="116.040044" y="210.986583" style="fill: #1f77b4; stroke: #000000; stroke-width: 0.3"/>
    </g>
    <g clip-path="url(#p05819d25b4)">
     <use xlink:href="#C0_0_622445bf26" x="208.104241" y="162.731607" style="fill: #1f77b4; stroke: #000000; stroke-width: 0.3"/>
    </g>
    <g clip-path="url(#p05819d25b4)">
     <use xlink:href="#C0_0_622445bf26" x="148.45465" y="89.477355" style="fill: #1f77b4; stroke: #000000; stroke-width: 0.3"/>
    </g>
    <g clip-path="url(#p05819d25b4)">
     <use xlink:href="#C0_0_622445bf26" x="200.388602" y="185.14309" style="fill: #1f77b4; stroke: #000000; stroke-width: 0.3"/>
    </g>
   </g>
   <g id="matplotlib.axis_1">
    <g id="xtick_1">
     <g id="line2d_1">
      <defs>
       <path id="m50463a884b" d="M 0 0 
L 0 3.5 
" style="stroke: #000000; stroke-width: 0.8"/>
      </defs>
      <g>
       <use xlink:href="#m50463a884b" x="106.149841" y="246.04" style="stroke: #000000; stroke-width: 0.8"/>
      </g>
     </g>
     <g id="text_1">
      <!-- −10 -->
      <g transform="translate(95.597497 260.638438) scale(0.1 -0.1)">
       <defs>
        <path id="DejaVuSans-2212" d="M 678 2272 
L 4684 2272 
L 4684 1741 
L 678 1741 
L 678 2272 
z
" transform="scale(0.015625)"/>
        <path id="DejaVuSans-31" d="M 794 531 
L 1825 531 
L 1825 4091 
L 703 3866 
L 703 4441 
L 1819 4666 
L 2450 4666 
L 2450 531 
L 3481 531 
L 3481 0 
L 794 0 
L 794 531 
z
" transform="scale(0.015625)"/>
        <path id="DejaVuSans-30" d="M 2034 4250 
Q 1547 4250 1301 3770 
Q 1056 3291 1056 2328 
Q 1056 1369 1301 889 
Q 1547 409 2034 409 
Q 2525 409 2770 889 
Q 3016 1369 3016 2328 
Q 3016 3291 2770 3770 
Q 2525 4250 2034 4250 
z
M 2034 4750 
Q 2819 4750 3233 4129 
Q 3647 3509 3647 2328 
Q 3647 1150 3233 529 
Q 2819 -91 2034 -91 
Q 1250 -91 836 529 
Q 422 1150 422 2328 
Q 422 3509 836 4129 
Q 1250 4750 2034 4750 
z
" transform="scale(0.015625)"/>
       </defs>
       <use xlink:href="#DejaVuSans-2212"/>
       <use xlink:href="#DejaVuSans-31" x="83.789062"/>
       <use xlink:href="#DejaVuSans-30" x="147.412109"/>
      </g>
     </g>
    </g>
    <g id="xtick_2">
     <g id="line2d_2">
      <g>
       <use xlink:href="#m50463a884b" x="162.539589" y="246.04" style="stroke: #000000; stroke-width: 0.8"/>
      </g>
     </g>
     <g id="text_2">
      <!-- −5 -->
      <g transform="translate(155.168496 260.638438) scale(0.1 -0.1)">
       <defs>
        <path id="DejaVuSans-35" d="M 691 4666 
L 3169 4666 
L 3169 4134 
L 1269 4134 
L 1269 2991 
Q 1406 3038 1543 3061 
Q 1681 3084 1819 3084 
Q 2600 3084 3056 2656 
Q 3513 2228 3513 1497 
Q 3513 744 3044 326 
Q 2575 -91 1722 -91 
Q 1428 -91 1123 -41 
Q 819 9 494 109 
L 494 744 
Q 775 591 1075 516 
Q 1375 441 1709 441 
Q 2250 441 2565 725 
Q 2881 1009 2881 1497 
Q 2881 1984 2565 2268 
Q 2250 2553 1709 2553 
Q 1456 2553 1204 2497 
Q 953 2441 691 2322 
L 691 4666 
z
" transform="scale(0.015625)"/>
       </defs>
       <use xlink:href="#DejaVuSans-2212"/>
       <use xlink:href="#DejaVuSans-35" x="83.789062"/>
      </g>
     </g>
    </g>
    <g id="xtick_3">
     <g id="line2d_3">
      <g>
       <use xlink:href="#m50463a884b" x="218.929338" y="246.04" style="stroke: #000000; stroke-width: 0.8"/>
      </g>
     </g>
     <g id="text_3">
      <!-- 0 -->
      <g transform="translate(215.748088 260.638438) scale(0.1 -0.1)">
       <use xlink:href="#DejaVuSans-30"/>
      </g>
     </g>
    </g>
    <g id="xtick_4">
     <g id="line2d_4">
      <g>
       <use xlink:href="#m50463a884b" x="275.319086" y="246.04" style="stroke: #000000; stroke-width: 0.8"/>
      </g>
     </g>
     <g id="text_4">
      <!-- 5 -->
      <g transform="translate(272.137836 260.638438) scale(0.1 -0.1)">
       <use xlink:href="#DejaVuSans-35"/>
      </g>
     </g>
    </g>
    <g id="xtick_5">
     <g id="line2d_5">
      <g>
       <use xlink:href="#m50463a884b" x="331.708835" y="246.04" style="stroke: #000000; stroke-width: 0.8"/>
      </g>
     </g>
     <g id="text_5">
      <!-- 10 -->
      <g transform="translate(325.346335 260.638438) scale(0.1 -0.1)">
       <use xlink:href="#DejaVuSans-31"/>
       <use xlink:href="#DejaVuSans-30" x="63.623047"/>
      </g>
     </g>
    </g>
    <g id="text_6">
     <!-- PC1 -->
     <g transform="translate(191.405 274.316562) scale(0.1 -0.1)">
      <defs>
       <path id="DejaVuSans-50" d="M 1259 4147 
L 1259 2394 
L 2053 2394 
Q 2494 2394 2734 2622 
Q 2975 2850 2975 3272 
Q 2975 3691 2734 3919 
Q 2494 4147 2053 4147 
L 1259 4147 
z
M 628 4666 
L 2053 4666 
Q 2838 4666 3239 4311 
Q 3641 3956 3641 3272 
Q 3641 2581 3239 2228 
Q 2838 1875 2053 1875 
L 1259 1875 
L 1259 0 
L 628 0 
L 628 4666 
z
" transform="scale(0.015625)"/>
       <path id="DejaVuSans-43" d="M 4122 4306 
L 4122 3641 
Q 3803 3938 3442 4084 
Q 3081 4231 2675 4231 
Q 1875 4231 1450 3742 
Q 1025 3253 1025 2328 
Q 1025 1406 1450 917 
Q 1875 428 2675 428 
Q 3081 428 3442 575 
Q 3803 722 4122 1019 
L 4122 359 
Q 3791 134 3420 21 
Q 3050 -91 2638 -91 
Q 1578 -91 968 557 
Q 359 1206 359 2328 
Q 359 3453 968 4101 
Q 1578 4750 2638 4750 
Q 3056 4750 3426 4639 
Q 3797 4528 4122 4306 
z
" transform="scale(0.015625)"/>
      </defs>
      <use xlink:href="#DejaVuSans-50"/>
      <use xlink:href="#DejaVuSans-43" x="60.302734"/>
      <use xlink:href="#DejaVuSans-31" x="130.126953"/>
     </g>
    </g>
   </g>
   <g id="matplotlib.axis_2">
    <g id="ytick_1">
     <g id="line2d_6">
      <defs>
       <path id="m4d8261e3ee" d="M 0 0 
L -3.5 0 
" style="stroke: #000000; stroke-width: 0.8"/>
      </defs>
      <g>
       <use xlink:href="#m4d8261e3ee" x="52.985" y="245.759929" style="stroke: #000000; stroke-width: 0.8"/>
      </g>
     </g>
     <g id="text_7">
      <!-- −10 -->
      <g transform="translate(24.880313 249.559148) scale(0.1 -0.1)">
       <use xlink:href="#DejaVuSans-2212"/>
       <use xlink:href="#DejaVuSans-31" x="83.789062"/>
       <use xlink:href="#DejaVuSans-30" x="147.412109"/>
      </g>
     </g>
    </g>
    <g id="ytick_2">
     <g id="line2d_7">
      <g>
       <use xlink:href="#m4d8261e3ee" x="52.985" y="198.98856" style="stroke: #000000; stroke-width: 0.8"/>
      </g>
     </g>
     <g id="text_8">
      <!-- −5 -->
      <g transform="translate(31.242813 202.787779) scale(0.1 -0.1)">
       <use xlink:href="#DejaVuSans-2212"/>
       <use xlink:href="#DejaVuSans-35" x="83.789062"/>
      </g>
     </g>
    </g>
    <g id="ytick_3">
     <g id="line2d_8">
      <g>
       <use xlink:href="#m4d8261e3ee" x="52.985" y="152.217191" style="stroke: #000000; stroke-width: 0.8"/>
      </g>
     </g>
     <g id="text_9">
      <!-- 0 -->
      <g transform="translate(39.6225 156.01641) scale(0.1 -0.1)">
       <use xlink:href="#DejaVuSans-30"/>
      </g>
     </g>
    </g>
    <g id="ytick_4">
     <g id="line2d_9">
      <g>
       <use xlink:href="#m4d8261e3ee" x="52.985" y="105.445822" style="stroke: #000000; stroke-width: 0.8"/>
      </g>
     </g>
     <g id="text_10">
      <!-- 5 -->
      <g transform="translate(39.6225 109.245041) scale(0.1 -0.1)">
       <use xlink:href="#DejaVuSans-35"/>
      </g>
     </g>
    </g>
    <g id="ytick_5">
     <g id="line2d_10">
      <g>
       <use xlink:href="#m4d8261e3ee" x="52.985" y="58.674454" style="stroke: #000000; stroke-width: 0.8"/>
      </g>
     </g>
     <g id="text_11">
      <!-- 10 -->
      <g transform="translate(33.26 62.473672) scale(0.1 -0.1)">
       <use xlink:href="#DejaVuSans-31"/>
       <use xlink:href="#DejaVuSans-30" x="63.623047"/>
      </g>
     </g>
    </g>
    <g id="text_12">
     <!-- PC2 -->
     <g transform="translate(18.800625 145.7875) rotate(-90) scale(0.1 -0.1)">
      <defs>
       <path id="DejaVuSans-32" d="M 1228 531 
L 3431 531 
L 3431 0 
L 469 0 
L 469 531 
Q 828 903 1448 1529 
Q 2069 2156 2228 2338 
Q 2531 2678 2651 2914 
Q 2772 3150 2772 3378 
Q 2772 3750 2511 3984 
Q 2250 4219 1831 4219 
Q 1534 4219 1204 4116 
Q 875 4013 500 3803 
L 500 4441 
Q 881 4594 1212 4672 
Q 1544 4750 1819 4750 
Q 2544 4750 2975 4387 
Q 3406 4025 3406 3419 
Q 3406 3131 3298 2873 
Q 3191 2616 2906 2266 
Q 2828 2175 2409 1742 
Q 1991 1309 1228 531 
z
" transform="scale(0.015625)"/>
      </defs>
      <use xlink:href="#DejaVuSans-50"/>
      <use xlink:href="#DejaVuSans-43" x="60.302734"/>
      <use xlink:href="#DejaVuSans-32" x="130.126953"/>
     </g>
    </g>
   </g>
   <g id="patch_3">
    <path d="M 52.985 246.04 
L 52.985 26.16 
" style="fill: none; stroke: #000000; stroke-width: 0.8; stroke-linejoin: miter; stroke-linecap: square"/>
   </g>
   <g id="patch_4">
    <path d="M 349.2 246.04 
L 349.2 26.16 
" style="fill: none; stroke: #000000; stroke-width: 0.8; stroke-linejoin: miter; stroke-linecap: square"/>
   </g>
   <g id="patch_5">
    <path d="M 52.985 246.04 
L 349.2 246.04 
" style="fill: none; stroke: #000000; stroke-width: 0.8; stroke-linejoin: miter; stroke-linecap: square"/>
   </g>
   <g id="patch_6">
    <path d="M 52.985 26.16 
L 349.2 26.16 
" style="fill: none; stroke: #000000; stroke-width: 0.8; stroke-linejoin: miter; stroke-linecap: square"/>
   </g>
   <g id="text_13">
    <!-- Baseline skin-paired biological features -->
    <g transform="translate(83.324688 20.16) scale(0.12 -0.12)">
     <defs>
      <path id="DejaVuSans-42" d="M 1259 2228 
L 1259 519 
L 2272 519 
Q 2781 519 3026 730 
Q 3272 941 3272 1375 
Q 3272 1813 3026 2020 
Q 2781 2228 2272 2228 
L 1259 2228 
z
M 1259 4147 
L 1259 2741 
L 2194 2741 
Q 2656 2741 2882 2914 
Q 3109 3088 3109 3444 
Q 3109 3797 2882 3972 
Q 2656 4147 2194 4147 
L 1259 4147 
z
M 628 4666 
L 2241 4666 
Q 2963 4666 3353 4366 
Q 3744 4066 3744 3513 
Q 3744 3084 3544 2831 
Q 3344 2578 2956 2516 
Q 3422 2416 3680 2098 
Q 3938 1781 3938 1306 
Q 3938 681 3513 340 
Q 3088 0 2303 0 
L 628 0 
L 628 4666 
z
" transform="scale(0.015625)"/>
      <path id="DejaVuSans-61" d="M 2194 1759 
Q 1497 1759 1228 1600 
Q 959 1441 959 1056 
Q 959 750 1161 570 
Q 1363 391 1709 391 
Q 2188 391 2477 730 
Q 2766 1069 2766 1631 
L 2766 1759 
L 2194 1759 
z
M 3341 1997 
L 3341 0 
L 2766 0 
L 2766 531 
Q 2569 213 2275 61 
Q 1981 -91 1556 -91 
Q 1019 -91 701 211 
Q 384 513 384 1019 
Q 384 1609 779 1909 
Q 1175 2209 1959 2209 
L 2766 2209 
L 2766 2266 
Q 2766 2663 2505 2880 
Q 2244 3097 1772 3097 
Q 1472 3097 1187 3025 
Q 903 2953 641 2809 
L 641 3341 
Q 956 3463 1253 3523 
Q 1550 3584 1831 3584 
Q 2591 3584 2966 3190 
Q 3341 2797 3341 1997 
z
" transform="scale(0.015625)"/>
      <path id="DejaVuSans-73" d="M 2834 3397 
L 2834 2853 
Q 2591 2978 2328 3040 
Q 2066 3103 1784 3103 
Q 1356 3103 1142 2972 
Q 928 2841 928 2578 
Q 928 2378 1081 2264 
Q 1234 2150 1697 2047 
L 1894 2003 
Q 2506 1872 2764 1633 
Q 3022 1394 3022 966 
Q 3022 478 2636 193 
Q 2250 -91 1575 -91 
Q 1294 -91 989 -36 
Q 684 19 347 128 
L 347 722 
Q 666 556 975 473 
Q 1284 391 1588 391 
Q 1994 391 2212 530 
Q 2431 669 2431 922 
Q 2431 1156 2273 1281 
Q 2116 1406 1581 1522 
L 1381 1569 
Q 847 1681 609 1914 
Q 372 2147 372 2553 
Q 372 3047 722 3315 
Q 1072 3584 1716 3584 
Q 2034 3584 2315 3537 
Q 2597 3491 2834 3397 
z
" transform="scale(0.015625)"/>
      <path id="DejaVuSans-65" d="M 3597 1894 
L 3597 1613 
L 953 1613 
Q 991 1019 1311 708 
Q 1631 397 2203 397 
Q 2534 397 2845 478 
Q 3156 559 3463 722 
L 3463 178 
Q 3153 47 2828 -22 
Q 2503 -91 2169 -91 
Q 1331 -91 842 396 
Q 353 884 353 1716 
Q 353 2575 817 3079 
Q 1281 3584 2069 3584 
Q 2775 3584 3186 3129 
Q 3597 2675 3597 1894 
z
M 3022 2063 
Q 3016 2534 2758 2815 
Q 2500 3097 2075 3097 
Q 1594 3097 1305 2825 
Q 1016 2553 972 2059 
L 3022 2063 
z
" transform="scale(0.015625)"/>
      <path id="DejaVuSans-6c" d="M 603 4863 
L 1178 4863 
L 1178 0 
L 603 0 
L 603 4863 
z
" transform="scale(0.015625)"/>
      <path id="DejaVuSans-69" d="M 603 3500 
L 1178 3500 
L 1178 0 
L 603 0 
L 603 3500 
z
M 603 4863 
L 1178 4863 
L 1178 4134 
L 603 4134 
L 603 4863 
z
" transform="scale(0.015625)"/>
      <path id="DejaVuSans-6e" d="M 3513 2113 
L 3513 0 
L 2938 0 
L 2938 2094 
Q 2938 2591 2744 2837 
Q 2550 3084 2163 3084 
Q 1697 3084 1428 2787 
Q 1159 2491 1159 1978 
L 1159 0 
L 581 0 
L 581 3500 
L 1159 3500 
L 1159 2956 
Q 1366 3272 1645 3428 
Q 1925 3584 2291 3584 
Q 2894 3584 3203 3211 
Q 3513 2838 3513 2113 
z
" transform="scale(0.015625)"/>
      <path id="DejaVuSans-20" transform="scale(0.015625)"/>
      <path id="DejaVuSans-6b" d="M 581 4863 
L 1159 4863 
L 1159 1991 
L 2875 3500 
L 3609 3500 
L 1753 1863 
L 3688 0 
L 2938 0 
L 1159 1709 
L 1159 0 
L 581 0 
L 581 4863 
z
" transform="scale(0.015625)"/>
      <path id="DejaVuSans-2d" d="M 313 2009 
L 1997 2009 
L 1997 1497 
L 313 1497 
L 313 2009 
z
" transform="scale(0.015625)"/>
      <path id="DejaVuSans-70" d="M 1159 525 
L 1159 -1331 
L 581 -1331 
L 581 3500 
L 1159 3500 
L 1159 2969 
Q 1341 3281 1617 3432 
Q 1894 3584 2278 3584 
Q 2916 3584 3314 3078 
Q 3713 2572 3713 1747 
Q 3713 922 3314 415 
Q 2916 -91 2278 -91 
Q 1894 -91 1617 61 
Q 1341 213 1159 525 
z
M 3116 1747 
Q 3116 2381 2855 2742 
Q 2594 3103 2138 3103 
Q 1681 3103 1420 2742 
Q 1159 2381 1159 1747 
Q 1159 1113 1420 752 
Q 1681 391 2138 391 
Q 2594 391 2855 752 
Q 3116 1113 3116 1747 
z
" transform="scale(0.015625)"/>
      <path id="DejaVuSans-72" d="M 2631 2963 
Q 2534 3019 2420 3045 
Q 2306 3072 2169 3072 
Q 1681 3072 1420 2755 
Q 1159 2438 1159 1844 
L 1159 0 
L 581 0 
L 581 3500 
L 1159 3500 
L 1159 2956 
Q 1341 3275 1631 3429 
Q 1922 3584 2338 3584 
Q 2397 3584 2469 3576 
Q 2541 3569 2628 3553 
L 2631 2963 
z
" transform="scale(0.015625)"/>
      <path id="DejaVuSans-64" d="M 2906 2969 
L 2906 4863 
L 3481 4863 
L 3481 0 
L 2906 0 
L 2906 525 
Q 2725 213 2448 61 
Q 2172 -91 1784 -91 
Q 1150 -91 751 415 
Q 353 922 353 1747 
Q 353 2572 751 3078 
Q 1150 3584 1784 3584 
Q 2172 3584 2448 3432 
Q 2725 3281 2906 2969 
z
M 947 1747 
Q 947 1113 1208 752 
Q 1469 391 1925 391 
Q 2381 391 2643 752 
Q 2906 1113 2906 1747 
Q 2906 2381 2643 2742 
Q 2381 3103 1925 3103 
Q 1469 3103 1208 2742 
Q 947 2381 947 1747 
z
" transform="scale(0.015625)"/>
      <path id="DejaVuSans-62" d="M 3116 1747 
Q 3116 2381 2855 2742 
Q 2594 3103 2138 3103 
Q 1681 3103 1420 2742 
Q 1159 2381 1159 1747 
Q 1159 1113 1420 752 
Q 1681 391 2138 391 
Q 2594 391 2855 752 
Q 3116 1113 3116 1747 
z
M 1159 2969 
Q 1341 3281 1617 3432 
Q 1894 3584 2278 3584 
Q 2916 3584 3314 3078 
Q 3713 2572 3713 1747 
Q 3713 922 3314 415 
Q 2916 -91 2278 -91 
Q 1894 -91 1617 61 
Q 1341 213 1159 525 
L 1159 0 
L 581 0 
L 581 4863 
L 1159 4863 
L 1159 2969 
z
" transform="scale(0.015625)"/>
      <path id="DejaVuSans-6f" d="M 1959 3097 
Q 1497 3097 1228 2736 
Q 959 2375 959 1747 
Q 959 1119 1226 758 
Q 1494 397 1959 397 
Q 2419 397 2687 759 
Q 2956 1122 2956 1747 
Q 2956 2369 2687 2733 
Q 2419 3097 1959 3097 
z
M 1959 3584 
Q 2709 3584 3137 3096 
Q 3566 2609 3566 1747 
Q 3566 888 3137 398 
Q 2709 -91 1959 -91 
Q 1206 -91 779 398 
Q 353 888 353 1747 
Q 353 2609 779 3096 
Q 1206 3584 1959 3584 
z
" transform="scale(0.015625)"/>
      <path id="DejaVuSans-67" d="M 2906 1791 
Q 2906 2416 2648 2759 
Q 2391 3103 1925 3103 
Q 1463 3103 1205 2759 
Q 947 2416 947 1791 
Q 947 1169 1205 825 
Q 1463 481 1925 481 
Q 2391 481 2648 825 
Q 2906 1169 2906 1791 
z
M 3481 434 
Q 3481 -459 3084 -895 
Q 2688 -1331 1869 -1331 
Q 1566 -1331 1297 -1286 
Q 1028 -1241 775 -1147 
L 775 -588 
Q 1028 -725 1275 -790 
Q 1522 -856 1778 -856 
Q 2344 -856 2625 -561 
Q 2906 -266 2906 331 
L 2906 616 
Q 2728 306 2450 153 
Q 2172 0 1784 0 
Q 1141 0 747 490 
Q 353 981 353 1791 
Q 353 2603 747 3093 
Q 1141 3584 1784 3584 
Q 2172 3584 2450 3431 
Q 2728 3278 2906 2969 
L 2906 3500 
L 3481 3500 
L 3481 434 
z
" transform="scale(0.015625)"/>
      <path id="DejaVuSans-63" d="M 3122 3366 
L 3122 2828 
Q 2878 2963 2633 3030 
Q 2388 3097 2138 3097 
Q 1578 3097 1268 2742 
Q 959 2388 959 1747 
Q 959 1106 1268 751 
Q 1578 397 2138 397 
Q 2388 397 2633 464 
Q 2878 531 3122 666 
L 3122 134 
Q 2881 22 2623 -34 
Q 2366 -91 2075 -91 
Q 1284 -91 818 406 
Q 353 903 353 1747 
Q 353 2603 823 3093 
Q 1294 3584 2113 3584 
Q 2378 3584 2631 3529 
Q 2884 3475 3122 3366 
z
" transform="scale(0.015625)"/>
      <path id="DejaVuSans-66" d="M 2375 4863 
L 2375 4384 
L 1825 4384 
Q 1516 4384 1395 4259 
Q 1275 4134 1275 3809 
L 1275 3500 
L 2222 3500 
L 2222 3053 
L 1275 3053 
L 1275 0 
L 697 0 
L 697 3053 
L 147 3053 
L 147 3500 
L 697 3500 
L 697 3744 
Q 697 4328 969 4595 
Q 1241 4863 1831 4863 
L 2375 4863 
z
" transform="scale(0.015625)"/>
      <path id="DejaVuSans-74" d="M 1172 4494 
L 1172 3500 
L 2356 3500 
L 2356 3053 
L 1172 3053 
L 1172 1153 
Q 1172 725 1289 603 
Q 1406 481 1766 481 
L 2356 481 
L 2356 0 
L 1766 0 
Q 1100 0 847 248 
Q 594 497 594 1153 
L 594 3053 
L 172 3053 
L 172 3500 
L 594 3500 
L 594 4494 
L 1172 4494 
z
" transform="scale(0.015625)"/>
      <path id="DejaVuSans-75" d="M 544 1381 
L 544 3500 
L 1119 3500 
L 1119 1403 
Q 1119 906 1312 657 
Q 1506 409 1894 409 
Q 2359 409 2629 706 
Q 2900 1003 2900 1516 
L 2900 3500 
L 3475 3500 
L 3475 0 
L 2900 0 
L 2900 538 
Q 2691 219 2414 64 
Q 2138 -91 1772 -91 
Q 1169 -91 856 284 
Q 544 659 544 1381 
z
M 1991 3584 
L 1991 3584 
z
" transform="scale(0.015625)"/>
     </defs>
     <use xlink:href="#DejaVuSans-42"/>
     <use xlink:href="#DejaVuSans-61" x="68.603516"/>
     <use xlink:href="#DejaVuSans-73" x="129.882812"/>
     <use xlink:href="#DejaVuSans-65" x="181.982422"/>
     <use xlink:href="#DejaVuSans-6c" x="243.505859"/>
     <use xlink:href="#DejaVuSans-69" x="271.289062"/>
     <use xlink:href="#DejaVuSans-6e" x="299.072266"/>
     <use xlink:href="#DejaVuSans-65" x="362.451172"/>
     <use xlink:href="#DejaVuSans-20" x="423.974609"/>
     <use xlink:href="#DejaVuSans-73" x="455.761719"/>
     <use xlink:href="#DejaVuSans-6b" x="507.861328"/>
     <use xlink:href="#DejaVuSans-69" x="565.771484"/>
     <use xlink:href="#DejaVuSans-6e" x="593.554688"/>
     <use xlink:href="#DejaVuSans-2d" x="656.933594"/>
     <use xlink:href="#DejaVuSans-70" x="693.017578"/>
     <use xlink:href="#DejaVuSans-61" x="756.494141"/>
     <use xlink:href="#DejaVuSans-69" x="817.773438"/>
     <use xlink:href="#DejaVuSans-72" x="845.556641"/>
     <use xlink:href="#DejaVuSans-65" x="884.419922"/>
     <use xlink:href="#DejaVuSans-64" x="945.943359"/>
     <use xlink:href="#DejaVuSans-20" x="1009.419922"/>
     <use xlink:href="#DejaVuSans-62" x="1041.207031"/>
     <use xlink:href="#DejaVuSans-69" x="1104.683594"/>
     <use xlink:href="#DejaVuSans-6f" x="1132.466797"/>
     <use xlink:href="#DejaVuSans-6c" x="1193.648438"/>
     <use xlink:href="#DejaVuSans-6f" x="1221.431641"/>
     <use xlink:href="#DejaVuSans-67" x="1282.613281"/>
     <use xlink:href="#DejaVuSans-69" x="1346.089844"/>
     <use xlink:href="#DejaVuSans-63" x="1373.873047"/>
     <use xlink:href="#DejaVuSans-61" x="1428.853516"/>
     <use xlink:href="#DejaVuSans-6c" x="1490.132812"/>
     <use xlink:href="#DejaVuSans-20" x="1517.916016"/>
     <use xlink:href="#DejaVuSans-66" x="1549.703125"/>
     <use xlink:href="#DejaVuSans-65" x="1584.908203"/>
     <use xlink:href="#DejaVuSans-61" x="1646.431641"/>
     <use xlink:href="#DejaVuSans-74" x="1707.710938"/>
     <use xlink:href="#DejaVuSans-75" x="1746.919922"/>
     <use xlink:href="#DejaVuSans-72" x="1810.298828"/>
     <use xlink:href="#DejaVuSans-65" x="1849.162109"/>
     <use xlink:href="#DejaVuSans-73" x="1910.685547"/>
    </g>
   </g>
  </g>
 </g>
 <defs>
  <clipPath id="p05819d25b4">
   <rect x="52.985" y="26.16" width="296.215" height="219.88"/>
  </clipPath>
 </defs>
</svg>
